
Format                                   : Matroska
Format version                           : Version 2
File size                                : 1.41 GiB
Duration                                 : 1h 19mn
Overall bit rate                         : 2 537 Kbps
Encoded date                             : UTC 2012-07-07 19:29:26
Writing application                      : mkvmerge v5.6.0 ('Kenya Kane') built on May 27 2012 16:44:04
Writing library                          : libebml v1.2.3 + libmatroska v1.3.0

Video
ID                                       : 1
Format                                   : MPEG-4 Visual
Format profile                           : Advanced Simple@L5
Format settings, BVOP                    : Yes
Format settings, QPel                    : No
Format settings, GMC                     : No warppoints
Format settings, Matrix                  : Default (H.263)
Codec ID                                 : XVID
Codec ID/Hint                            : XviD
Duration                                 : 1h 19mn
Bit rate                                 : 2 294 Kbps
Width                                    : 720 pixels
Height                                   : 314 pixels
Display aspect ratio                     : 2.25:1
Frame rate                               : 25.000 fps
Color space                              : YUV
Chroma subsampling                       : 4:2:0
Bit depth                                : 8 bits
Scan type                                : Progressive
Compression mode                         : Lossy
Bits/(Pixel*Frame)                       : 0.406
Stream size                              : 1.28 GiB (90%)
Writing library                          : XviD 64

Audio
ID                                       : 2
Format                                   : AC-3
Format/Info                              : Audio Coding 3
Mode extension                           : CM (complete main)
Muxing mode                              : Header stripping
Codec ID                                 : A_AC3
Duration                                 : 1h 19mn
Bit rate mode                            : Constant
Bit rate                                 : 192 Kbps
Channel(s)                               : 2 channels
Channel positions                        : Front: L R
Sampling rate                            : 48.0 KHz
Bit depth                                : 16 bits
Compression mode                         : Lossy
Stream size                              : 109 MiB (8%)
[IMG]http://i1173.photobucket.com/albums/r584/sirgeorge1973/iceagemkv_thumbs_20120707_234500.jpg[/IMG]